<svg width="24" height="24" viewBox="0 0 24 24" fill="none" xmlns="http://www.w3.org/2000/svg">
  <path d="M12 8.5A3.5 3.5 0 1 0 12 15.5A3.5 3.5 0 1 0 12 8.5Z" stroke="currentColor" stroke-width="2"/>
  <path d="M19.4 15A1 1 0 0 0 19.6 16.1L19.7 16.2A1.2 1.2 0 1 1 18 17.9L17.9 17.8A1 1 0 0 0 16.8 17.6A1 1 0 0 0 16.2 18.5V18.8A1.2 1.2 0 1 1 13.8 18.8V18.7A1 1 0 0 0 13.2 17.8A1 1 0 0 0 12.1 18L12 18.1A1.2 1.2 0 1 1 10.3 16.4L10.4 16.3A1 1 0 0 0 10.6 15.2A1 1 0 0 0 9.7 14.6H9.4A1.2 1.2 0 1 1 9.4 12.2H9.5A1 1 0 0 0 10.4 11.6A1 1 0 0 0 10.2 10.5L10.1 10.4A1.2 1.2 0 1 1 11.8 8.7L11.9 8.8A1 1 0 0 0 13 9A1 1 0 0 0 13.6 8.1V8A1.2 1.2 0 1 1 16 8V8.1A1 1 0 0 0 16.6 9A1 1 0 0 0 17.7 8.8L17.8 8.7A1.2 1.2 0 1 1 19.5 10.4L19.4 10.5A1 1 0 0 0 19.2 11.6A1 1 0 0 0 20.1 12.2H20.2A1.2 1.2 0 1 1 20.2 14.6H20.1A1 1 0 0 0 19.4 15Z" stroke="currentColor" stroke-width="1.4" stroke-linecap="round" stroke-linejoin="round"/>
</svg>
